<svg class="SelectButtonLinkIcons__IconClubhouseStyle-sc-1xg0nzd-35 hEgSM" xmlns="http://www.w3.org/2000/svg"
    viewBox="0 0 210 210">
    <defs>
        <style>
            .btn-icon-clubhouse-1 {
                fill: none
            }
        </style>
    </defs>
    <path class="btn-icon-clubhouse-1" d="M6 5h200v200H6z"></path>
    <path
        d="M112.24 129.15c-7.24 0-14.07-3-20.81-9-3.43-3.15-7.91-6.87-12.23-10.5-6.94-5.83-12.94-10.87-14.11-12.65a5.61 5.61 0 0 1 .07-7.52l.19-.17a6 6 0 0 1 6.54 0c.47.4 1.54 1.35 2.93 2.59 3.11 2.78 10.41 9.3 11.38 9.79a1.62 1.62 0 0 0 .54 0 2.67 2.67 0 0 0-.07-.27C86 100.66 83 97.93 79.91 95c-9.82-9-17.39-16.1-18.11-18a6.1 6.1 0 0 1 1.09-6.94c1.41-1.19 5-2.83 7.53-.81.79.63 3.58 3.43 8.07 8 4.8 4.84 12 12.13 13 12.7a1.86 1.86 0 0 0 1 0 1.81 1.81 0 0 0-.06-.56c-.45-.94-6.75-7.14-11.82-12.11C71.36 68.17 67.25 64 66.89 62.75c-.5-1.86-1.56-5.75 2-7.61a8.1 8.1 0 0 1 8.52 1.27c.7.54 3.86 4.07 9 9.8S98.58 79.89 99.6 80.52c.19.06.37.11.56.15a4.79 4.79 0 0 0-.24-.92c-.63-.76-2-2.38-3.83-4.39C86.74 64.74 82 59.06 81.73 57.5a10.14 10.14 0 0 0-.29-1.21c-.55-1.83-.72-3.31 1.94-5.72l.07-.07a6.15 6.15 0 0 1 7.24 0c.77.73 3.11 3.68 7.18 8.83 5.5 7 15.74 19.92 17.4 20.71 2.71.81 5.47 1 6.28.33a24.8 24.8 0 0 0 2.12-10c0-3.28 5.2-7.29 7.14-7.62 2.81-.48 6.76-.91 8.6 1 2.4 2.49-.18 8-3.4 12.32s-.67 14.11.39 18.34l.21.86A33.25 33.25 0 0 1 136 111c-1.54 3.49-11.61 16.62-19.54 17.85a26 26 0 0 1-4.22.3zm-45.7-38.39a3.92 3.92 0 0 0 .08 5.24c1.11 1.65 7.59 7.08 13.84 12.35 4.34 3.64 8.82 7.41 12.28 10.51 7.57 6.8 15.22 9.51 23.41 8.22 7.13-1.1 16.68-13.57 18-16.66a31.38 31.38 0 0 0 .55-14.67l-.2-.81c-1.12-4.47-3.73-14.93-.09-19.81 3.74-5 4.63-8.94 3.54-10-.61-.64-2.29-1.24-6.84-.45-1.28.23-5.57 3.68-5.57 5.85a26.51 26.51 0 0 1-2.35 10.82l-.17.25c-1.93 2.06-7.36.58-8.42.26-1.62-.49-7-7-18.31-21.35-3.38-4.27-6.29-8-6.91-8.55a4.15 4.15 0 0 0-4.77 0c-2 1.82-1.77 2.61-1.39 3.9a10.34 10.34 0 0 1 .35 1.46c.43 1.5 9.58 11.88 13.98 16.87 1.9 2.16 3.39 3.86 4 4.58l.14.26c.4 1.1.71 2.33-.07 3.06s-2 .35-2.75.09-3.44-3-13.93-14.8c-4-4.48-8.13-9.1-8.76-9.6a6.11 6.11 0 0 0-6.42-1c-1.82 1-1.74 2.84-1 5.54.47 1.17 7.89 8.44 13.3 13.75 9.32 9.15 12.07 12 12.31 13a2.22 2.22 0 0 1-.47 2.26 3.43 3.43 0 0 1-3 .37c-.78-.19-2.69-1.94-13.82-13.16-3.69-3.72-7.17-7.23-7.91-7.82-1.47-1.18-4-.12-5 .71a4.38 4.38 0 0 0-.68 5c.67 1.7 11.74 11.92 17.69 17.41 4.3 4 6.57 6.07 7.05 6.69l.15.26a2.07 2.07 0 0 1-.23 2.19 2.62 2.62 0 0 1-2.5.56c-.67-.1-2-1.1-12.2-10.2-1.37-1.23-2.42-2.16-2.8-2.49a4 4 0 0 0-4.11-.09z">
    </path>
    <path
        d="M118 65.79a1.51 1.51 0 0 1-1.47-1.07A31.24 31.24 0 0 0 103.9 47.6a1.4 1.4 0 0 1-.3-2 1.59 1.59 0 0 1 2.08-.33A34.23 34.23 0 0 1 119.44 64a1.45 1.45 0 0 1-1.07 1.78 1.45 1.45 0 0 1-.37.01zM68.52 118.08a1.41 1.41 0 0 1-.64-.13A35.16 35.16 0 0 1 50.65 102a1.42 1.42 0 0 1 .75-1.92 1.58 1.58 0 0 1 2 .65 32.12 32.12 0 0 0 15.76 14.57 1.43 1.43 0 0 1 .75 1.92 1.53 1.53 0 0 1-1.39.85zM110.7 66.72a1.53 1.53 0 0 1-1.48-1.07 24.54 24.54 0 0 0-9.35-13.13 1.41 1.41 0 0 1-.25-2 1.58 1.58 0 0 1 2.09-.27 27.53 27.53 0 0 1 10.47 14.68 1.44 1.44 0 0 1-1.08 1.77 1.39 1.39 0 0 1-.4.02zM71.74 112.12a1.5 1.5 0 0 1-.62-.13 28.42 28.42 0 0 1-13.76-12 1.4 1.4 0 0 1 .56-2 1.56 1.56 0 0 1 2.08.52.56.56 0 0 1 0 .08 25.43 25.43 0 0 0 12.3 10.73 1.44 1.44 0 0 1 .78 1.92 1.56 1.56 0 0 1-1.4.86z">
    </path>
    <g>
        <path
            d="M33.78 164.85c-6 .54-11.35-3.64-11.92-9.33v-.27a11.72 11.72 0 0 1 3.49-11.09 13.64 13.64 0 0 1 14.52-1.22c1.14.68 1.94 1.57 1.2 2.85s-1.91 1-3 .37a9.46 9.46 0 0 0-6.08-.91 5.7 5.7 0 0 0-4.63 3.12 10.22 10.22 0 0 0 0 9.41 7.8 7.8 0 0 0 10.18 2.63c.42-.18 2.74-.53 3.17.21a1.77 1.77 0 0 1-.2 2.19 10.8 10.8 0 0 1-6.73 2.04zM96.5 150.7a7.85 7.85 0 0 1 6-2.19 4.65 4.65 0 0 1 4.94 4.06c.35 3.49.29 7 .29 10.53a1.75 1.75 0 0 1-1.75 1.76 2.51 2.51 0 0 1-2.41-1.69 1.93 1.93 0 0 1 0-.34v-7.42c0-2.77-.82-3.81-2.92-3.85a3.75 3.75 0 0 0-4 3.41 3.53 3.53 0 0 0 0 .46c-.1 2.3 0 4.62 0 6.93 0 1.36-.35 2.43-2.07 2.47-1.46 0-2.08-.63-2.08-2.41v-18.66c0-1.34.43-2.28 2-2.33 1.44 0 2.12.7 2.13 2.41-.11 2.16-.13 4.27-.13 6.86zM65.1 162.64a6.77 6.77 0 0 1-6.35 2.1 4.42 4.42 0 0 1-4.26-3.74c-.35-3.62-.33-7.24-.33-10.86 0-1.19 1-1.66 2.22-1.59a1.82 1.82 0 0 1 1.92 1.69 1.13 1.13 0 0 1 0 .26v7.59c0 2.53.75 3.6 2.68 3.71a3.65 3.65 0 0 0 4.05-3.1 3 3 0 0 0 0-.52c.13-2.36 0-4.73.07-7.1 0-1.85.66-2.59 2.16-2.53 1.71.06 2.08 1.15 2.08 2.49v11.07c0 1.19 0 2.43-1.61 2.72s-2.44-.47-2.63-2.19zM169.43 157.53a1.22 1.22 0 0 0-1.25 1.19 1 1 0 0 0 .06.35 3.61 3.61 0 0 0 3.67 2.6 45.3 45.3 0 0 0 4.9-.75 3.44 3.44 0 0 1 1 .05 1.18 1.18 0 0 1 1 1.33v.11a1.74 1.74 0 0 1-.54 1 10.93 10.93 0 0 1-12.28-.92A8.3 8.3 0 0 1 175 149a7.22 7.22 0 0 1 4.57 7c0 1.28-.77 1.58-1.92 1.58h-8.19zm5-2.4a1.21 1.21 0 0 0 1.25-1.15 1 1 0 0 0 0-.34 3.25 3.25 0 0 0-3.35-2.29 3.88 3.88 0 0 0-3.88 2.17 1.15 1.15 0 0 0 .66 1.53 1.32 1.32 0 0 0 .48.09zM141.11 162.9a18.79 18.79 0 0 1-3.06 1.66 5.8 5.8 0 0 1-7.44-2.78 5.26 5.26 0 0 1-.47-2.17c-.22-3-.1-6.05-.1-9.08a1.82 1.82 0 0 1 1.63-2h.38a1.93 1.93 0 0 1 2.19 1.57 1.77 1.77 0 0 1 0 .46v7.76c0 2.43.8 3.4 2.72 3.47a3.6 3.6 0 0 0 3.94-3.18v-.18c.13-2.54 0-5.07.07-7.6 0-1.32.49-2.29 2.09-2.29s2.14.86 2.14 2.23v11.4c0 1.2 0 2.41-1.66 2.65a1.93 1.93 0 0 1-2.39-1.19 1.71 1.71 0 0 1-.04-.73zM154.27 164.59a16.47 16.47 0 0 1-5-.9A1.45 1.45 0 0 1 148 162a1.25 1.25 0 0 1 .14-.41c.52-1.11 1.42-.72 2.38-.5a32 32 0 0 0 5.26.83 1.91 1.91 0 0 0 2.22-1.47v-.18c.11-1.28-.9-1.66-2-1.88-1.41-.29-2.85-.52-4.26-.87a4 4 0 0 1-3.35-3.38 4.15 4.15 0 0 1 2.24-4.49 10.12 10.12 0 0 1 9.82.08.79.79 0 0 1 .32.36 1.44 1.44 0 0 1-.79 1.95 1.82 1.82 0 0 1-.4.11 2.54 2.54 0 0 1-.39 0c-1.64-.15-3.26-.64-4.91-.72-1.09-.06-2.24.63-2 1.78a3.16 3.16 0 0 0 1.88 1.75 37.38 37.38 0 0 0 4.08.85 4.07 4.07 0 0 1 3.62 3.51 4.57 4.57 0 0 1-3 4.65 17.64 17.64 0 0 1-4.59.62zM88.81 152.57a6.83 6.83 0 0 0-8.66-3.7 7.28 7.28 0 0 0-1 .44c-.63.37-1.18.81-2 1.4 0-2.61.09-5-.05-7.29a2 2 0 0 0-2.1-1.92 2.09 2.09 0 0 0-1.32.47A3 3 0 0 0 73 144v18.15c0 1.2.07 2.39 1.7 2.63s2.34-.63 2.56-2.29a7 7 0 0 0 8 1.81 6.74 6.74 0 0 0 4.36-6.59 12.89 12.89 0 0 0-.81-5.14zm-7.89 9.19c-2.58-.17-4-2.28-3.82-5.69.16-2.92 1.82-4.62 4.4-4.49s3.94 2 3.92 5.12c0 3.34-1.7 5.24-4.5 5.06zM118.82 148.49a8.2 8.2 0 1 0 8.63 8.2 8.42 8.42 0 0 0-8.63-8.2zm-.38 13.25c-2.59-.2-4-2.45-3.68-5.94.25-2.83 1.91-4.41 4.46-4.22s3.82 2 3.84 5c0 3.38-1.78 5.35-4.64 5.13zM45.77 143H48a.93.93 0 0 1 1 .91v20a.94.94 0 0 1-1 .91h-2.23a.94.94 0 0 1-1-.91v-20a.93.93 0 0 1 1-.91z">
        </path>
    </g>
</svg>
